<svg width="25" height="25" viewBox="0 0 25 25" fill="none" xmlns="http://www.w3.org/2000/svg">
<path d="M22.3644 2.64181C20.7873 1.06227 18.6796 0.124912 16.4504 0.0116137C14.2212 -0.101684 12.0293 0.617159 10.3001 2.02866C8.57099 3.44017 7.42781 5.44368 7.09244 7.65046C6.75707 9.85724 7.25341 12.1099 8.48516 13.9714L6.83578 15.628L6.57649 15.3759C6.54301 15.3421 6.50318 15.3154 6.45929 15.2971C6.41541 15.2788 6.36834 15.2694 6.3208 15.2694C6.27325 15.2694 6.22618 15.2788 6.1823 15.2971C6.13841 15.3154 6.09858 15.3421 6.06511 15.3759L0.209444 21.2316C0.0752966 21.3665 0 21.5491 0 21.7393C0 21.9296 0.0752966 22.1122 0.209444 22.2471L2.24776 24.2854C2.31472 24.3529 2.39438 24.4065 2.48215 24.4431C2.56992 24.4797 2.66406 24.4985 2.75914 24.4985C2.85422 24.4985 2.94836 24.4797 3.03613 24.4431C3.1239 24.4065 3.20356 24.3529 3.27052 24.2854L9.12618 18.4298C9.19263 18.3612 9.22978 18.2695 9.22978 18.1741C9.22978 18.0786 9.19263 17.9869 9.12618 17.9184L8.86689 17.6663L10.4442 16.0889C12.25 17.4951 14.5235 18.1608 16.8024 17.9507C19.0814 17.7405 21.1949 16.6703 22.713 14.9577C24.2312 13.2451 25.0401 11.0185 24.9754 8.73079C24.9106 6.44305 23.977 4.26584 22.3644 2.64181ZM20.3261 13.3376C19.7719 13.9612 19.0961 14.465 18.3401 14.8179C17.5842 15.1709 16.764 15.3657 15.9301 15.3902C15.0962 15.4148 14.266 15.2686 13.4906 14.9607C12.7152 14.6528 12.0109 14.1897 11.4209 13.5997C10.831 13.0098 10.3679 12.3055 10.06 11.5301C9.75206 10.7547 9.6059 9.92451 9.63045 9.09057C9.655 8.25662 9.84974 7.4365 10.2027 6.68054C10.5557 5.92459 11.0595 5.24875 11.6831 4.69454C12.2373 4.07092 12.9131 3.56715 13.6691 3.21417C14.425 2.8612 15.2452 2.66646 16.0791 2.64191C16.9131 2.61736 17.7432 2.76352 18.5186 3.07142C19.294 3.37931 19.9983 3.84245 20.5883 4.43239C21.1782 5.02233 21.6413 5.72663 21.9492 6.50204C22.2571 7.27745 22.4033 8.10761 22.3788 8.94155C22.3542 9.77549 22.1595 10.5956 21.8065 11.3516C21.4535 12.1075 20.9497 12.7834 20.3261 13.3376Z" fill="white"/>
</svg>
