<svg width="27" height="26" viewBox="0 0 27 26" fill="none" xmlns="http://www.w3.org/2000/svg">
<path d="M25.9439 11.5601C23.7264 6.37469 19.5845 2.25117 14.3893 0.0566584C14.1789 -0.0241127 13.9451 -0.0183273 13.739 0.0727502C13.5329 0.163828 13.3712 0.332792 13.2893 0.54272C13.2393 0.649023 13.2119 0.764496 13.2087 0.881899C13.2054 0.999303 13.2265 1.11611 13.2705 1.22499C13.3146 1.33387 13.3806 1.43248 13.4646 1.51464C13.5485 1.5968 13.6485 1.66074 13.7583 1.70245C18.5411 3.71891 22.358 7.50824 24.409 12.2764C24.4744 12.4263 24.5815 12.5542 24.7176 12.645C24.8536 12.7357 25.0129 12.7853 25.1764 12.7881C25.2971 12.7875 25.4163 12.7613 25.5261 12.7113C25.6303 12.6646 25.7241 12.5974 25.8018 12.5137C25.8796 12.43 25.9397 12.3315 25.9787 12.2242C26.0177 12.1168 26.0347 12.0027 26.0287 11.8886C26.0227 11.7745 25.9939 11.6628 25.9439 11.5601Z" fill="#C1CDE3"/>
<path d="M13.3148 6.29873C16.2176 7.52431 18.5338 9.82523 19.7786 12.7199C19.8394 12.8665 19.9424 12.9918 20.0744 13.0798C20.2065 13.1679 20.3618 13.2147 20.5205 13.2144C20.6356 13.2136 20.7492 13.1874 20.8531 13.1377C21.0492 13.0416 21.2009 12.874 21.2771 12.6693C21.3532 12.4646 21.348 12.2386 21.2624 12.0377C19.8505 8.74898 17.2188 6.13562 13.9203 4.74674C13.7184 4.67715 13.4977 4.68585 13.3019 4.77111C13.1061 4.85638 12.9495 5.012 12.8629 5.20722C12.7827 5.41231 12.785 5.64046 12.8692 5.84392C12.9535 6.04737 13.1132 6.21034 13.3148 6.29873Z" fill="#C1CDE3"/>
<path d="M21.5267 16.4288C21.3351 16.2196 21.1037 16.0507 20.8459 15.9321C20.5882 15.8135 20.3094 15.7475 20.0259 15.738C19.7435 15.7467 19.4657 15.8124 19.2093 15.9311C18.9528 16.0498 18.723 16.2191 18.5336 16.4288C17.8287 17.1166 17.1294 17.8159 16.4359 18.5265C16.3966 18.5786 16.3466 18.6215 16.2892 18.6525C16.2318 18.6834 16.1684 18.7015 16.1033 18.7056C16.0181 18.7026 15.9355 18.676 15.8645 18.6288C15.4126 18.3815 14.9265 18.1854 14.4916 17.9125C12.4951 16.617 10.7236 15.004 9.24728 13.1372C8.47888 12.2335 7.84684 11.2222 7.37125 10.1356C7.31972 10.0461 7.30172 9.94114 7.32047 9.83959C7.33921 9.73804 7.39349 9.64647 7.47358 9.58127C8.18135 8.89908 8.86354 8.20836 9.54573 7.50911C9.77116 7.32186 9.95257 7.08726 10.0771 6.82197C10.2016 6.55669 10.2661 6.26723 10.2661 5.97418C10.2661 5.68113 10.2016 5.39168 10.0771 5.12639C9.95257 4.86111 9.77116 4.6265 9.54573 4.43925L7.89995 2.79347L6.19447 1.08799C5.80455 0.677677 5.26799 0.438521 4.70218 0.422852C4.4207 0.432354 4.1439 0.497533 3.88777 0.614624C3.63163 0.731716 3.40123 0.898398 3.20988 1.10504C2.50211 1.79576 1.81992 2.5547 1.10362 3.19425C0.456026 3.79191 0.0648705 4.617 0.0121098 5.49665C-0.0499139 6.93417 0.209355 8.36743 0.771048 9.69213C1.82808 12.4528 3.36059 15.007 5.29909 17.2389C7.84426 20.2931 11.0135 22.7675 14.594 24.4957C16.1818 25.3333 17.9217 25.8437 19.7104 25.9965H20.043C20.5877 26.0183 21.1304 25.9187 21.6319 25.7048C22.1333 25.491 22.581 25.1683 22.9423 24.76C23.5477 24.0864 24.2214 23.4724 24.8609 22.8328C25.0821 22.6447 25.2597 22.4108 25.3815 22.1472C25.5034 21.8837 25.5665 21.5968 25.5665 21.3064C25.5665 21.0161 25.5034 20.7292 25.3815 20.4657C25.2597 20.2021 25.0821 19.9682 24.8609 19.78C23.7694 18.6601 22.658 17.543 21.5267 16.4288ZM23.6756 21.639L23.0361 22.27C22.5926 22.6964 22.1322 23.1228 21.6973 23.6259C21.4976 23.858 21.2462 24.0399 20.9632 24.1569C20.6803 24.274 20.3738 24.3228 20.0685 24.2995H19.8298C18.2662 24.1604 16.7465 23.708 15.3614 22.9693C12.0034 21.3385 9.03002 19.0132 6.63789 16.1474C4.81839 14.0649 3.37559 11.6814 2.3742 9.10374C1.89832 8.01058 1.67393 6.82453 1.71759 5.63309C1.72626 5.40523 1.78053 5.18142 1.8772 4.9749C1.97387 4.76838 2.11097 4.58334 2.2804 4.43073C2.72382 4.00436 3.13314 3.57799 3.57656 3.14309L4.4293 2.29035C4.50449 2.21336 4.59859 2.15749 4.70218 2.12833C4.82158 2.15728 4.92893 2.22288 5.00916 2.31593C5.38437 2.68261 5.75957 3.05782 6.12625 3.43302L6.68906 3.99583L7.5418 4.84857L8.3519 5.70131C8.66741 6.01682 8.65036 6.07651 8.3519 6.36644L8.07049 6.65638C7.4821 7.25329 6.90224 7.83316 6.28827 8.43007C5.96837 8.73504 5.75073 9.13157 5.66523 9.56519C5.57972 9.99881 5.63055 10.4483 5.81074 10.8519C6.35485 12.0848 7.07275 13.2334 7.94258 14.2628C9.5404 16.2637 11.4527 17.9917 13.6048 19.3792C13.9459 19.5839 14.2784 19.7544 14.5769 19.8994C14.7389 19.9762 14.9009 20.0529 15.0374 20.1297C15.3666 20.3208 15.7397 20.4236 16.1204 20.4281C16.4146 20.4251 16.705 20.3614 16.9735 20.2411C17.242 20.1208 17.4828 19.9464 17.6809 19.7289C18.3545 19.0381 19.0367 18.3645 19.753 17.6567C19.8259 17.5617 19.9277 17.4929 20.043 17.4606C20.1604 17.4935 20.2647 17.562 20.3414 17.6567C21.4784 18.7653 22.5983 19.8824 23.7012 21.008C23.9485 21.2553 23.9741 21.315 23.6756 21.639Z" fill="#C1CDE3"/>
</svg>
