<svg width="25" height="25" viewBox="0 0 25 25" fill="none" xmlns="http://www.w3.org/2000/svg">
<path d="M7.87402 19.2708C9.26948 20.3762 10.5914 20.8333 12.4999 20.8333C16.6937 20.8333 20.1543 17.6524 20.6601 13.5416H21.8869C22.7079 13.5416 23.1976 12.6145 22.7422 11.9222L20.5511 8.59173C20.1442 7.97325 19.2473 7.97325 18.8404 8.59173L16.6493 11.9222C16.1939 12.6145 16.6836 13.5416 17.5046 13.5416H18.5825C18.0931 16.4976 15.5561 18.75 12.4999 18.75C11.3761 18.75 10.3224 18.4454 9.41494 17.9132L7.87402 19.2708Z" fill="#273A5E"/>
<path d="M15.5846 7.08672C14.6772 6.55457 13.6235 6.24999 12.4997 6.24999C9.4435 6.24999 6.90649 8.50237 6.41709 11.4583H7.49495C8.31599 11.4583 8.80571 12.3855 8.35028 13.0778L6.15916 16.4082C5.75227 17.0268 4.85539 17.0268 4.4485 16.4082L2.25738 13.0778C1.80196 12.3855 2.29167 11.4583 3.11272 11.4583H4.33948C4.84534 7.34758 8.30591 4.16666 12.4997 4.16666C14.4082 4.16666 15.7301 4.62375 17.1256 5.72916L15.5846 7.08672Z" fill="#273A5E"/>
</svg>
