<svg width="20" height="20" viewBox="0 0 20 20" fill="none" xmlns="http://www.w3.org/2000/svg">
<path d="M19.2936 9.68145C17.3811 6.37521 13.8186 4.3252 9.99989 4.3252C6.18115 4.3252 2.61864 6.37521 0.706143 9.68145C0.599905 9.8752 0.599905 10.1127 0.706143 10.3065C2.61864 13.6189 6.18115 15.6752 9.99989 15.6752C13.8186 15.6752 17.3811 13.6189 19.2936 10.3065C19.3999 10.1127 19.3999 9.8752 19.2936 9.68145V9.68145ZM9.99989 13.9065C7.84364 13.9065 6.09364 12.1565 6.09364 10.0002C6.09364 7.84395 7.84364 6.09396 9.99989 6.09396C12.1561 6.09396 13.9061 7.84395 13.9061 10.0002C13.9061 12.1565 12.1561 13.9065 9.99989 13.9065Z" fill="#C6C6C6"/>
<path d="M10 12.6562C11.467 12.6562 12.6562 11.467 12.6562 10C12.6562 8.53299 11.467 7.34375 10 7.34375C8.53299 7.34375 7.34375 8.53299 7.34375 10C7.34375 11.467 8.53299 12.6562 10 12.6562Z" fill="#C6C6C6"/>
</svg>
