<svg width="26" height="25" viewBox="0 0 26 25" fill="none" xmlns="http://www.w3.org/2000/svg">
<g clip-path="url(#clip0_106_12029)">
<path d="M24.1179 5.61226H21.6738V1.87364C21.6727 1.62576 21.6226 1.38054 21.5264 1.15207C21.4303 0.92359 21.29 0.716357 21.1135 0.542268C20.937 0.368179 20.7279 0.230663 20.4982 0.137618C20.2684 0.0445732 20.0225 -0.00216853 19.7746 7.7249e-05H6.1998C5.70064 7.7249e-05 5.22193 0.198368 4.86897 0.551327C4.51601 0.904286 4.31772 1.383 4.31772 1.88216V5.61226H1.88208C1.38292 5.61226 0.904208 5.81055 0.551249 6.16351C0.19829 6.51647 0 6.99519 0 7.49435L0 17.4668C0 17.966 0.19829 18.4447 0.551249 18.7977C0.904208 19.1506 1.38292 19.3489 1.88208 19.3489H4.25811V23.079C4.25811 23.5782 4.4564 24.0569 4.80936 24.4099C5.16231 24.7628 5.64103 24.9611 6.14019 24.9611H19.7661C20.2661 24.9588 20.7448 24.7587 21.0975 24.4044C21.4502 24.05 21.6482 23.5704 21.6482 23.0705V19.3489H24.0668C24.5653 19.3467 25.0427 19.1477 25.3952 18.7952C25.7477 18.4427 25.9467 17.9653 25.9489 17.4668V7.49435C25.9469 7.00456 25.755 6.53465 25.4134 6.18359C25.0719 5.83252 24.6075 5.6277 24.1179 5.61226ZM6.23387 1.88216H19.7746V5.61226H6.14871L6.23387 1.88216ZM6.23387 23.079V12.8596H19.8598L19.9024 23.079H6.23387ZM24.186 17.4668H21.6908V10.9604H4.25811V17.4668H1.88208V7.49435H24.1179L24.186 17.4668Z" fill="#C1CDE3"/>
<path d="M16.3767 15.3291H9.62332C9.37262 15.3291 9.13217 15.4287 8.9549 15.606C8.77762 15.7833 8.67802 16.0237 8.67802 16.2744C8.67802 16.5251 8.77762 16.7656 8.9549 16.9428C9.13217 17.1201 9.37262 17.2197 9.62332 17.2197H16.3767C16.6274 17.2197 16.8678 17.1201 17.0451 16.9428C17.2224 16.7656 17.322 16.5251 17.322 16.2744C17.322 16.0237 17.2224 15.7833 17.0451 15.606C16.8678 15.4287 16.6274 15.3291 16.3767 15.3291Z" fill="#C1CDE3"/>
<path d="M16.3767 18.6761H9.62332C9.49221 18.6636 9.35995 18.6787 9.235 18.7203C9.11005 18.7619 8.99518 18.8292 8.89774 18.9178C8.8003 19.0064 8.72245 19.1144 8.66918 19.2348C8.61591 19.3552 8.58839 19.4855 8.58839 19.6172C8.58839 19.7489 8.61591 19.8791 8.66918 19.9996C8.72245 20.12 8.8003 20.228 8.89774 20.3166C8.99518 20.4052 9.11005 20.4724 9.235 20.514C9.35995 20.5557 9.49221 20.5707 9.62332 20.5582H16.3767C16.6108 20.5359 16.8282 20.4271 16.9864 20.2531C17.1447 20.0791 17.2324 19.8524 17.2324 19.6172C17.2324 19.382 17.1447 19.1552 16.9864 18.9812C16.8282 18.8072 16.6108 18.6984 16.3767 18.6761Z" fill="#C1CDE3"/>
</g>
<defs>
<clipPath id="clip0_106_12029">
<rect width="26" height="24.961" fill="white"/>
</clipPath>
</defs>
</svg>
