<svg width="20" height="20" viewBox="0 0 20 20" fill="none" xmlns="http://www.w3.org/2000/svg">
<g clip-path="url(#clip0_128_295)">
<path d="M20 10.1771C20 10.1199 20 10.0571 20 9.99991C20 9.94277 20 9.87991 20 9.82277V9.38848C19.8508 6.84498 18.7352 4.45465 16.8816 2.70658C15.028 0.95851 12.5764 -0.0151367 10.0286 -0.0151367C7.4807 -0.0151367 5.02914 0.95851 3.17552 2.70658C1.3219 4.45465 0.206352 6.84498 0.0571429 9.38848H0V9.75991C0 9.83991 0 9.91991 0 9.99991C0 10.0799 0 10.1599 0 10.2399V11.1028H0.0628571C0.338057 13.5456 1.50345 15.8016 3.33647 17.4397C5.16948 19.0778 7.54167 19.9833 10 19.9833C12.4583 19.9833 14.8305 19.0778 16.6635 17.4397C18.4966 15.8016 19.6619 13.5456 19.9371 11.1028H20V10.1771ZM18.2857 9.38848H14.7657C14.76 6.92457 14.1726 4.49681 13.0514 2.30277C14.5008 2.87388 15.7602 3.8412 16.6858 5.0942C17.6114 6.34719 18.1658 7.83531 18.2857 9.38848ZM10 18.2856C9.03429 18.2856 7.22286 15.7599 6.96571 11.1028H13.0343C12.7771 15.7599 10.9657 18.2856 10 18.2856ZM6.94857 9.38848C7.09714 4.42277 9 1.71419 10 1.71419C11 1.71419 12.9029 4.42277 13.0514 9.38848H6.94857ZM6.94857 2.30277C5.82738 4.49681 5.24002 6.92457 5.23429 9.38848H1.74286C1.8572 7.83552 2.40596 6.346 3.32646 5.09004C4.24697 3.83407 5.50211 2.86228 6.94857 2.28562V2.30277ZM1.80571 11.1028H5.23429C5.29955 13.4022 5.88569 15.6569 6.94857 17.6971C5.58276 17.1523 4.38599 16.2549 3.48045 15.0963C2.57491 13.9378 1.99305 12.5597 1.79429 11.1028H1.80571ZM13.0514 17.7142C14.1143 15.6741 14.7005 13.4194 14.7657 11.1199H18.2229C18.0225 12.5787 17.4381 13.9581 16.5294 15.1168C15.6207 16.2755 14.4204 17.1719 13.0514 17.7142Z" fill="white"/>
</g>
<defs>
<clipPath id="clip0_128_295">
<rect width="20" height="20" fill="white"/>
</clipPath>
</defs>
</svg>
