<svg width="26" height="19" viewBox="0 0 26 19" fill="none" xmlns="http://www.w3.org/2000/svg">
<g clip-path="url(#clip0_106_11986)">
<path d="M21.9375 0H4.0625C2.98506 0 1.95175 0.428012 1.18988 1.18988C0.428012 1.95175 0 2.98506 0 4.0625L0 14.625C0 15.1585 0.10508 15.6868 0.309239 16.1797C0.513399 16.6725 0.812641 17.1204 1.18988 17.4976C1.95175 18.2595 2.98506 18.6875 4.0625 18.6875H21.9375C22.471 18.6875 22.9993 18.5824 23.4922 18.3783C23.985 18.1741 24.4329 17.8749 24.8101 17.4976C25.1874 17.1204 25.4866 16.6725 25.6908 16.1797C25.8949 15.6868 26 15.1585 26 14.625V4.0625C26 2.98506 25.572 1.95175 24.8101 1.18988C24.0483 0.428012 23.0149 0 21.9375 0V0ZM21.9375 1.625C22.238 1.62729 22.5355 1.68514 22.815 1.79562L12.7887 10.2781L2.91687 1.92562C3.26733 1.7305 3.6614 1.6271 4.0625 1.625H21.9375ZM24.375 14.625C24.375 15.2715 24.1182 15.8915 23.6611 16.3486C23.204 16.8057 22.584 17.0625 21.9375 17.0625H4.0625C3.41603 17.0625 2.79605 16.8057 2.33893 16.3486C1.88181 15.8915 1.625 15.2715 1.625 14.625V4.0625C1.62414 3.73905 1.68767 3.41866 1.81187 3.12L12.2688 11.96C12.4138 12.0841 12.5979 12.1531 12.7887 12.155C12.9824 12.155 13.1697 12.0859 13.3169 11.96L23.8794 3.0225C23.937 2.9677 23.9863 2.90474 24.0256 2.83562C24.2531 3.20451 24.374 3.62914 24.375 4.0625V14.625Z" fill="#C1CDE3"/>
</g>
<defs>
<clipPath id="clip0_106_11986">
<rect width="26" height="18.6875" fill="white"/>
</clipPath>
</defs>
</svg>
