<svg width="23" height="32" viewBox="0 0 23 32" fill="none" xmlns="http://www.w3.org/2000/svg">
<g clip-path="url(#clip0_106_11990)">
<path d="M23 11.4697C23 8.41974 21.7884 5.49467 19.6317 3.338C17.4751 1.18133 14.55 -0.0302734 11.5 -0.0302734C8.45001 -0.0302734 5.52494 1.18133 3.36827 3.338C1.21161 5.49467 1.8663e-06 8.41974 1.8663e-06 11.4697C-0.0012783 13.7065 0.656055 15.8941 1.89 17.7597L1.94 17.8397L5.17 22.6297L7.85 26.6297L8.93 28.1997L11.5 31.9997L14.07 28.1997L16.3 24.8897L17.58 22.9997L17.84 22.6097L21.04 17.8597V17.7997C22.3062 15.9306 22.9885 13.7273 23 11.4697ZM19.44 16.6497V16.7197L16.25 21.4497C16.2471 21.4696 16.2471 21.4898 16.25 21.5097L16 21.8697L14.73 23.7597L12.49 27.0697L11.58 28.4197L10.67 27.0697L9.53 25.5197L6.85 21.5197L3.6 16.7297C3.6 16.7297 3.6 16.6797 3.6 16.6497C2.56679 15.119 2.01005 13.3165 2 11.4697C2 8.95017 3.00089 6.53381 4.78249 4.75221C6.56408 2.97062 8.98045 1.96973 11.5 1.96973C14.0196 1.96973 16.4359 2.97062 18.2175 4.75221C19.9991 6.53381 21 8.95017 21 11.4697C21.0018 13.3124 20.4591 15.1145 19.44 16.6497Z" fill="#C1CDE3"/>
<path d="M11.54 4.38965C10.3138 4.38965 9.11505 4.75327 8.09546 5.43454C7.07588 6.1158 6.28121 7.08411 5.81195 8.21701C5.34268 9.34991 5.2199 10.5965 5.45913 11.7992C5.69836 13.0019 6.28885 14.1066 7.15594 14.9737C8.02302 15.8408 9.12776 16.4313 10.3304 16.6705C11.5331 16.9097 12.7797 16.787 13.9126 16.3177C15.0455 15.8484 16.0138 15.0538 16.6951 14.0342C17.3764 13.0146 17.74 11.8159 17.74 10.5896C17.7374 8.94612 17.0833 7.37066 15.9211 6.20851C14.759 5.04635 13.1835 4.39229 11.54 4.38965ZM11.54 14.7796C10.7089 14.7796 9.89647 14.5331 9.20557 14.0711C8.51467 13.6092 7.97635 12.9526 7.65876 12.1846C7.34117 11.4166 7.25858 10.5716 7.42145 9.75658C7.58432 8.94159 7.98532 8.19324 8.5737 7.60626C9.16209 7.01928 9.91139 6.62006 10.7268 6.45913C11.5421 6.29821 12.3869 6.38281 13.1542 6.70223C13.9215 7.02165 14.5767 7.56153 15.037 8.25353C15.4973 8.94554 15.742 9.75854 15.74 10.5896C15.74 11.1407 15.6313 11.6864 15.4201 12.1954C15.2089 12.7044 14.8994 13.1668 14.5092 13.556C14.1191 13.9452 13.656 14.2536 13.1465 14.4636C12.637 14.6736 12.0911 14.781 11.54 14.7796Z" fill="#C1CDE3"/>
</g>
<defs>
<clipPath id="clip0_106_11990">
<rect width="23" height="32" fill="white"/>
</clipPath>
</defs>
</svg>
