<svg width="17" height="20" viewBox="0 0 17 20" fill="none" xmlns="http://www.w3.org/2000/svg">
<g clip-path="url(#clip0_82_4003)">
<path d="M15 0H1.25C0.918479 0 0.600537 0.131696 0.366117 0.366117C0.131696 0.600537 0 0.918479 0 1.25L0 18.75C0 19.0815 0.131696 19.3995 0.366117 19.6339C0.600537 19.8683 0.918479 20 1.25 20H15C15.3315 20 15.6495 19.8683 15.8839 19.6339C16.1183 19.3995 16.25 19.0815 16.25 18.75V1.25C16.25 0.918479 16.1183 0.600537 15.8839 0.366117C15.6495 0.131696 15.3315 0 15 0V0ZM3.125 3.75C3.125 3.58424 3.19085 3.42527 3.30806 3.30806C3.42527 3.19085 3.58424 3.125 3.75 3.125H6.25C6.41576 3.125 6.57473 3.19085 6.69194 3.30806C6.80915 3.42527 6.875 3.58424 6.875 3.75V6.875C6.875 7.04076 6.80915 7.19973 6.69194 7.31694C6.57473 7.43415 6.41576 7.5 6.25 7.5H3.75C3.58424 7.5 3.42527 7.43415 3.30806 7.31694C3.19085 7.19973 3.125 7.04076 3.125 6.875V3.75ZM9.0625 17.3438H3.4375C3.2303 17.3438 3.03159 17.2614 2.88507 17.1149C2.73856 16.9684 2.65625 16.7697 2.65625 16.5625C2.65625 16.3553 2.73856 16.1566 2.88507 16.0101C3.03159 15.8636 3.2303 15.7812 3.4375 15.7812H9.0625C9.2697 15.7812 9.46841 15.8636 9.61493 16.0101C9.76144 16.1566 9.84375 16.3553 9.84375 16.5625C9.84375 16.7697 9.76144 16.9684 9.61493 17.1149C9.46841 17.2614 9.2697 17.3438 9.0625 17.3438ZM12.8125 14.2188H3.4375C3.2303 14.2188 3.03159 14.1364 2.88507 13.9899C2.73856 13.8434 2.65625 13.6447 2.65625 13.4375C2.65625 13.2303 2.73856 13.0316 2.88507 12.8851C3.03159 12.7386 3.2303 12.6562 3.4375 12.6562H12.8125C13.0197 12.6562 13.2184 12.7386 13.3649 12.8851C13.5114 13.0316 13.5938 13.2303 13.5938 13.4375C13.5938 13.6447 13.5114 13.8434 13.3649 13.9899C13.2184 14.1364 13.0197 14.2188 12.8125 14.2188ZM12.8125 11.0938H3.4375C3.2303 11.0938 3.03159 11.0114 2.88507 10.8649C2.73856 10.7184 2.65625 10.5197 2.65625 10.3125C2.65625 10.1053 2.73856 9.90659 2.88507 9.76007C3.03159 9.61356 3.2303 9.53125 3.4375 9.53125H12.8125C13.0197 9.53125 13.2184 9.61356 13.3649 9.76007C13.5114 9.90659 13.5938 10.1053 13.5938 10.3125C13.5938 10.5197 13.5114 10.7184 13.3649 10.8649C13.2184 11.0114 13.0197 11.0938 12.8125 11.0938ZM12.8125 7.96875H9.6875C9.4803 7.96875 9.28159 7.88644 9.13507 7.73993C8.98856 7.59341 8.90625 7.3947 8.90625 7.1875C8.90625 6.9803 8.98856 6.78159 9.13507 6.63507C9.28159 6.48856 9.4803 6.40625 9.6875 6.40625H12.8125C13.0197 6.40625 13.2184 6.48856 13.3649 6.63507C13.5114 6.78159 13.5938 6.9803 13.5938 7.1875C13.5938 7.3947 13.5114 7.59341 13.3649 7.73993C13.2184 7.88644 13.0197 7.96875 12.8125 7.96875ZM12.8125 4.84375H9.6875C9.4803 4.84375 9.28159 4.76144 9.13507 4.61493C8.98856 4.46841 8.90625 4.2697 8.90625 4.0625C8.90625 3.8553 8.98856 3.65659 9.13507 3.51007C9.28159 3.36356 9.4803 3.28125 9.6875 3.28125H12.8125C13.0197 3.28125 13.2184 3.36356 13.3649 3.51007C13.5114 3.65659 13.5938 3.8553 13.5938 4.0625C13.5938 4.2697 13.5114 4.46841 13.3649 4.61493C13.2184 4.76144 13.0197 4.84375 12.8125 4.84375Z" fill="white"/>
</g>
<defs>
<clipPath id="clip0_82_4003">
<rect width="16.25" height="20" fill="white"/>
</clipPath>
</defs>
</svg>
