<svg width="26" height="25" viewBox="0 0 26 25" fill="none" xmlns="http://www.w3.org/2000/svg">
<path fill-rule="evenodd" clip-rule="evenodd" d="M11.1361 19.4809L11.2041 19.4965C11.4559 19.5541 11.8334 19.6537 12.1985 19.8298C12.5171 19.9834 13.1193 20.3326 13.4051 21.0425C13.5813 21.4778 13.6028 21.9196 13.6007 22.2004C13.5998 22.3369 13.5924 22.4695 13.5821 22.592C14.4005 22.1132 15.5244 21.4045 16.7465 20.5528C18.7618 19.1482 20.8425 17.4935 22.0799 16.0684L22.0905 16.0563L22.1012 16.0444C23.794 14.1771 24.5 12.4287 24.5 10.5524C24.5 5.84008 19.6484 1.5 13 1.5C6.35163 1.5 1.5 5.84008 1.5 10.5524C1.5 14.7947 5.31901 18.7099 11.0669 19.4718L11.1361 19.4809ZM12.014 21.6039C11.868 21.2387 11.2959 21.0561 10.8699 20.9588C4.62547 20.1311 0 15.7739 0 10.5524C0 4.73459 5.83053 0 13 0C20.1695 0 26 4.73459 26 10.5524C26 12.8771 25.0993 14.9706 23.2126 17.0518C20.486 20.192 14.3876 24.0137 13 24.598C11.6296 25.1749 11.8025 24.2443 11.8657 23.9046L11.868 23.892C11.8923 23.6973 12.0506 22.7845 12.0506 22.7845C12.0993 22.4437 12.1479 21.9325 12.014 21.6039Z" fill="#C1CDE3"/>
<path d="M21.6791 13.9115C21.813 13.9115 21.9225 13.802 21.9225 13.6681V12.7431C21.9225 12.6092 21.813 12.4997 21.6791 12.4997H19.1959V11.5382H21.6791C21.813 11.5382 21.9225 11.4286 21.9225 11.2947V10.3697C21.9225 10.2359 21.813 10.1263 21.6791 10.1263H19.1959V9.16478H21.6791C21.813 9.16478 21.9225 9.05524 21.9225 8.92136V7.99635C21.9225 7.86247 21.813 7.75293 21.6791 7.75293H18.0274C17.8935 7.75293 17.7839 7.86247 17.7839 7.99635V13.656C17.7839 13.7898 17.8935 13.8994 18.0274 13.8994H21.6791V13.9115Z" fill="#C1CDE3"/>
<path d="M8.16796 13.9115C8.30185 13.9115 8.41141 13.802 8.41141 13.6681V12.7431C8.41141 12.6092 8.30185 12.4997 8.16796 12.4997H5.68481V7.99635C5.68481 7.86247 5.57526 7.75293 5.44136 7.75293H4.51627C4.38238 7.75293 4.27283 7.86247 4.27283 7.99635V13.6681C4.27283 13.802 4.38238 13.9115 4.51627 13.9115H8.16796Z" fill="#C1CDE3"/>
<path d="M10.359 7.74023H9.43388C9.29998 7.74023 9.19043 7.84978 9.19043 7.98366V13.6554C9.19043 13.7893 9.29998 13.8989 9.43388 13.8989H10.359C10.4929 13.8989 10.6024 13.7893 10.6024 13.6554V7.98366C10.6146 7.84978 10.505 7.74023 10.359 7.74023Z" fill="#C1CDE3"/>
<path d="M16.6391 7.74023H15.7141C15.5802 7.74023 15.4706 7.84978 15.4706 7.98366V11.3551L12.8779 7.84978C12.8779 7.83761 12.8657 7.83761 12.8536 7.82543L12.8414 7.81327L12.8292 7.80109C12.8292 7.80109 12.8292 7.80109 12.8171 7.80109C12.8171 7.80109 12.8049 7.80109 12.8049 7.78892C12.8049 7.78892 12.8049 7.78892 12.7927 7.78892C12.7927 7.78892 12.7805 7.78893 12.7805 7.77675C12.7805 7.77675 12.7805 7.77675 12.7684 7.77675H12.7562C12.7562 7.77675 12.7562 7.77675 12.744 7.77675H12.7318C12.7318 7.77675 12.7318 7.77675 12.7197 7.77675H12.7075H12.6953H12.6832H12.671C12.671 7.77675 12.671 7.77675 12.6588 7.77675H11.7459C11.612 7.77675 11.5024 7.88629 11.5024 8.02018V13.6919C11.5024 13.8258 11.612 13.9354 11.7459 13.9354H12.671C12.8049 13.9354 12.9144 13.8258 12.9144 13.6919V10.3205L15.5193 13.8258C15.5315 13.8502 15.5558 13.8745 15.5802 13.8867L15.5923 13.8989C15.5923 13.8989 15.5923 13.8989 15.6045 13.8989H15.6167H15.6288C15.6288 13.8989 15.6288 13.8989 15.641 13.8989H15.6532C15.6775 13.8989 15.6897 13.911 15.7141 13.911H16.627C16.7609 13.911 16.8704 13.8015 16.8704 13.6676V7.99583C16.8826 7.84978 16.773 7.74023 16.6391 7.74023Z" fill="#C1CDE3"/>
</svg>
