<svg width="15" height="15" viewBox="0 0 15 15" fill="none" xmlns="http://www.w3.org/2000/svg">
<g clip-path="url(#clip0_79_3897)">
<path d="M11.7343 1.02429C11.6345 0.725901 11.4434 0.466446 11.1881 0.282629C10.9327 0.0988116 10.6261 -6.08977e-05 10.3114 2.81402e-08H4.68857C4.37394 -6.08977e-05 4.06726 0.0988116 3.81192 0.282629C3.55658 0.466446 3.3655 0.725901 3.26571 1.02429L2.25 4.07143H3.60429L4.48714 1.43143C4.50194 1.38955 4.52914 1.35318 4.56512 1.32714C4.60111 1.30111 4.64417 1.28666 4.68857 1.28571H10.3114C10.3558 1.28666 10.3989 1.30111 10.4349 1.32714C10.4709 1.35318 10.4981 1.38955 10.5129 1.43143L11.3957 4.07143H12.75L11.7343 1.02429Z" fill="white"/>
<path d="M14.5714 5.14285H0.428571C0.314907 5.14285 0.205898 5.18801 0.125526 5.26838C0.0451529 5.34875 0 5.45776 0 5.57142L0 7.71428C0 7.82795 0.0451529 7.93695 0.125526 8.01733C0.205898 8.0977 0.314907 8.14285 0.428571 8.14285H1.16571L2.02286 13.8429C2.05385 14.0472 2.15767 14.2335 2.31518 14.3674C2.4727 14.5013 2.67329 14.5738 2.88 14.5714H12.12C12.3267 14.5738 12.5273 14.5013 12.6848 14.3674C12.8423 14.2335 12.9461 14.0472 12.9771 13.8429L13.8343 8.14285H14.5714C14.6851 8.14285 14.7941 8.0977 14.8745 8.01733C14.9548 7.93695 15 7.82795 15 7.71428V5.57142C15 5.45776 14.9548 5.34875 14.8745 5.26838C14.7941 5.18801 14.6851 5.14285 14.5714 5.14285ZM5.14286 12.2143C5.14286 12.3848 5.07513 12.5483 4.95457 12.6688C4.83401 12.7894 4.6705 12.8571 4.5 12.8571C4.3295 12.8571 4.16599 12.7894 4.04543 12.6688C3.92487 12.5483 3.85714 12.3848 3.85714 12.2143V9.42857C3.85714 9.25807 3.92487 9.09456 4.04543 8.974C4.16599 8.85344 4.3295 8.78571 4.5 8.78571C4.6705 8.78571 4.83401 8.85344 4.95457 8.974C5.07513 9.09456 5.14286 9.25807 5.14286 9.42857V12.2143ZM8.14286 12.2143C8.14286 12.3848 8.07513 12.5483 7.95457 12.6688C7.83401 12.7894 7.6705 12.8571 7.5 12.8571C7.3295 12.8571 7.16599 12.7894 7.04543 12.6688C6.92487 12.5483 6.85714 12.3848 6.85714 12.2143V9.42857C6.85714 9.25807 6.92487 9.09456 7.04543 8.974C7.16599 8.85344 7.3295 8.78571 7.5 8.78571C7.6705 8.78571 7.83401 8.85344 7.95457 8.974C8.07513 9.09456 8.14286 9.25807 8.14286 9.42857V12.2143ZM11.1429 12.2143C11.1429 12.3848 11.0751 12.5483 10.9546 12.6688C10.834 12.7894 10.6705 12.8571 10.5 12.8571C10.3295 12.8571 10.166 12.7894 10.0454 12.6688C9.92487 12.5483 9.85714 12.3848 9.85714 12.2143V9.42857C9.85714 9.25807 9.92487 9.09456 10.0454 8.974C10.166 8.85344 10.3295 8.78571 10.5 8.78571C10.6705 8.78571 10.834 8.85344 10.9546 8.974C11.0751 9.09456 11.1429 9.25807 11.1429 9.42857V12.2143Z" fill="white"/>
</g>
<defs>
<clipPath id="clip0_79_3897">
<rect width="15" height="14.5714" fill="white"/>
</clipPath>
</defs>
</svg>
