<svg width="20" height="20" viewBox="0 0 20 20" fill="none" xmlns="http://www.w3.org/2000/svg">
<path d="M6.29932 15.4163C7.41568 16.3006 8.47319 16.6663 10 16.6663C13.355 16.6663 16.1235 14.1216 16.5282 10.833H17.5096C18.1664 10.833 18.5582 10.0912 18.1939 9.53739L16.4409 6.87304C16.1154 6.37826 15.3979 6.37826 15.0724 6.87304L13.3195 9.53739C12.9552 10.0912 13.3469 10.833 14.0038 10.833H14.8661C14.4746 13.1977 12.4449 14.9996 10 14.9996C9.10094 14.9996 8.258 14.756 7.53205 14.3302L6.29932 15.4163Z" fill="#C6C6C6"/>
<path d="M12.468 5.66906C11.7421 5.24334 10.8992 4.99967 10.0001 4.99967C7.55514 4.99967 5.52553 6.80158 5.13401 9.16634H5.9963C6.65313 9.16634 7.04491 9.90809 6.68056 10.4619L4.92767 13.1263C4.60216 13.6211 3.88466 13.6211 3.55914 13.1263L1.80625 10.4619C1.44191 9.90809 1.83368 9.16634 2.49051 9.16634H3.47192C3.87661 5.87775 6.64507 3.33301 10.0001 3.33301C11.5269 3.33301 12.5844 3.69868 13.7008 4.58301L12.468 5.66906Z" fill="#C6C6C6"/>
</svg>
