<svg width="39" height="50" viewBox="0 0 39 50" fill="none" xmlns="http://www.w3.org/2000/svg">
<g clip-path="url(#clip0_130_985)">
<path fill-rule="evenodd" clip-rule="evenodd" d="M21.6706 30.4571V24.3762C21.6706 24.3762 25.3612 20.2785 28.5658 22.4061C28.5658 22.4061 30.7001 24.6257 27.502 27.2525C25.8118 28.7284 23.8226 29.8216 21.6706 30.4571V30.4571ZM11.4132 18.7156V12.9696C11.4132 12.9696 13.3833 9.85033 16.8243 10.0145C20.2653 10.1787 19.2081 13.8692 17.9801 14.7755C16.7521 15.6817 11.4132 18.7156 11.4132 18.7156ZM21.8348 45.0618H33.2414C33.2414 45.0618 36.2819 44.5758 36.6102 41.8637V5.74604C36.6102 5.74604 36.7744 2.21965 33.3268 2.04891H5.1747C5.1747 2.04891 2.13425 2.62679 2.13425 5.74604V32.7555C2.28603 33.5096 2.66722 34.1983 3.22563 34.7273C3.78403 35.2563 4.49233 35.5998 5.25351 35.7106C6.52748 35.8682 6.81642 35.0539 6.81642 34.7256V12.3129C6.81642 12.3129 8.45813 7.38776 15.5963 6.89524C22.7345 6.40273 22.2616 11.1637 22.3273 11.6562C22.4061 12.3129 22.7345 16.253 17.8947 18.7156C12.1356 21.6707 11.2425 22.4061 11.2425 22.4061V34.6402L6.97402 37.1028C6.97402 37.1028 4.03207 37.72 2.6793 36.5971C1.06386 35.2837 0.328369 34.1871 0.328369 32.0003V5.66068C0.328369 5.66068 0.328369 0.328393 5.83139 0.328393H33.2414C33.967 0.32621 34.6851 0.474336 35.3505 0.763435C36.016 1.05253 36.6143 1.47634 37.1079 2.00814C37.6014 2.53994 37.9795 3.16821 38.2182 3.85336C38.4569 4.5385 38.5511 5.26566 38.4949 5.98902V41.8637C38.4949 41.8637 38.4161 46.0468 33.4122 46.8742H21.0927L16.995 49.6586C16.995 49.6586 16.0888 49.5798 16.0888 48.8443V25.2824C16.0888 25.2824 18.2362 19.497 25.9391 18.466C30.8642 17.8093 32.0988 23.0628 32.1776 23.7195C32.2564 24.3762 34.0688 26.8453 21.8348 34.8832V45.0618Z" fill="#E60012"/>
<path d="M21.6706 30.4571V24.3762C21.6706 24.3762 25.3612 20.2785 28.5658 22.4061C28.5658 22.4061 30.7001 24.6257 27.502 27.2525C25.8118 28.7284 23.8226 29.8216 21.6706 30.4571V30.4571ZM11.4132 18.7156V12.9696C11.4132 12.9696 13.3833 9.85033 16.8243 10.0145C20.2653 10.1787 19.2081 13.8692 17.9801 14.7755C16.7521 15.6817 11.4132 18.7156 11.4132 18.7156ZM21.8348 45.0618H33.2414C33.2414 45.0618 36.2819 44.5758 36.6102 41.8637V5.74604C36.6102 5.74604 36.7744 2.21965 33.3268 2.04891H5.1747C5.1747 2.04891 2.13425 2.62679 2.13425 5.74604V32.7555C2.28603 33.5096 2.66722 34.1983 3.22563 34.7273C3.78403 35.2563 4.49233 35.5998 5.25351 35.7106C6.52748 35.8682 6.81642 35.0539 6.81642 34.7256V12.3129C6.81642 12.3129 8.45813 7.38776 15.5963 6.89524C22.7345 6.40273 22.2616 11.1637 22.3273 11.6562C22.4061 12.3129 22.7345 16.253 17.8947 18.7156C12.1356 21.6707 11.2425 22.4061 11.2425 22.4061V34.6402L6.97402 37.1028C6.97402 37.1028 4.03207 37.72 2.6793 36.5971C1.06386 35.2837 0.328369 34.1871 0.328369 32.0003V5.66068C0.328369 5.66068 0.328369 0.328393 5.83139 0.328393H33.2414C33.967 0.32621 34.6851 0.474336 35.3505 0.763435C36.016 1.05253 36.6143 1.47634 37.1079 2.00814C37.6014 2.53994 37.9795 3.16821 38.2182 3.85336C38.4569 4.5385 38.5511 5.26566 38.4949 5.98902V41.8637C38.4949 41.8637 38.4161 46.0468 33.4122 46.8742H21.0927L16.995 49.6586C16.995 49.6586 16.0888 49.5798 16.0888 48.8443V25.2824C16.0888 25.2824 18.2362 19.497 25.9391 18.466C30.8642 17.8093 32.0988 23.0628 32.1776 23.7195C32.2564 24.3762 34.0688 26.8453 21.8348 34.8832V45.0618Z" stroke="#E60012" stroke-miterlimit="3.86"/>
</g>
<defs>
<clipPath id="clip0_130_985">
<rect width="38.8298" height="50" fill="white"/>
</clipPath>
</defs>
</svg>
