<svg width="78" height="100" viewBox="0 0 78 100" fill="none" xmlns="http://www.w3.org/2000/svg">
<g clip-path="url(#clip0_128_277)">
<path fill-rule="evenodd" clip-rule="evenodd" d="M43.3412 60.9142V48.7524C43.3412 48.7524 50.7223 40.557 57.1316 44.8123C57.1316 44.8123 61.4 49.2515 55.0039 54.505C51.6236 57.4568 47.6452 59.6431 43.3412 60.9142ZM22.8264 37.4311V25.9392C22.8264 25.9392 26.7665 19.7007 33.6485 20.029C40.5306 20.3573 38.4161 27.7385 35.9601 29.5509C33.5041 31.3634 22.8264 37.4311 22.8264 37.4311ZM43.6695 90.1236H66.4828C66.4828 90.1236 72.5637 89.1517 73.2204 83.7274V11.4921C73.2204 11.4921 73.5487 4.43929 66.6535 4.09782H10.3493C10.3493 4.09782 4.26845 5.25358 4.26845 11.4921V65.511C4.57199 67.0192 5.33438 68.3966 6.45119 69.4546C7.568 70.5126 8.9846 71.1995 10.507 71.4212C13.0549 71.7364 13.6328 70.1078 13.6328 69.4511V24.6258C13.6328 24.6258 16.9162 14.7755 31.1925 13.7905C45.4689 12.8055 44.5232 22.3274 44.6546 23.3124C44.8122 24.6258 45.4689 32.506 35.7893 37.4311C24.2711 43.3413 22.4849 44.8123 22.4849 44.8123V69.2804L13.948 74.2055C13.948 74.2055 8.06408 75.4401 5.35854 73.1942C2.12765 70.5675 0.656677 68.3741 0.656677 64.0006V11.3214C0.656677 11.3214 0.656677 0.656786 11.6627 0.656786H66.4828C67.9339 0.652421 69.3701 0.948673 70.701 1.52687C72.0319 2.10507 73.2286 2.95268 74.2157 4.01628C75.2028 5.07989 75.9589 6.33643 76.4364 7.70671C76.9138 9.077 77.1022 10.5313 76.9897 11.978V83.7274C76.9897 83.7274 76.8321 92.0936 66.8243 93.7485H42.1854L33.99 99.3172C33.99 99.3172 32.1776 99.1595 32.1776 97.6886V50.5648C32.1776 50.5648 36.4723 38.9941 51.8781 36.9321C61.7284 35.6187 64.1975 46.1257 64.3551 47.439C64.5127 48.7524 68.1376 53.6907 43.6695 69.7663V90.1236Z" fill="white"/>
<path d="M43.3412 60.9142V48.7524C43.3412 48.7524 50.7223 40.557 57.1316 44.8123C57.1316 44.8123 61.4 49.2515 55.0039 54.505C51.6236 57.4568 47.6452 59.6431 43.3412 60.9142V60.9142ZM22.8264 37.4311V25.9392C22.8264 25.9392 26.7665 19.7007 33.6485 20.029C40.5306 20.3573 38.4161 27.7385 35.9601 29.5509C33.5041 31.3634 22.8264 37.4311 22.8264 37.4311ZM43.6695 90.1236H66.4828C66.4828 90.1236 72.5637 89.1517 73.2204 83.7274V11.4921C73.2204 11.4921 73.5487 4.43929 66.6535 4.09782H10.3493C10.3493 4.09782 4.26845 5.25358 4.26845 11.4921V65.511C4.57199 67.0192 5.33439 68.3966 6.45119 69.4546C7.568 70.5126 8.9846 71.1995 10.507 71.4212C13.0549 71.7364 13.6328 70.1078 13.6328 69.4511V24.6258C13.6328 24.6258 16.9162 14.7755 31.1925 13.7905C45.4689 12.8055 44.5232 22.3274 44.6546 23.3124C44.8122 24.6258 45.4689 32.506 35.7893 37.4311C24.2711 43.3413 22.4849 44.8123 22.4849 44.8123V69.2804L13.948 74.2055C13.948 74.2055 8.06408 75.4401 5.35854 73.1942C2.12765 70.5675 0.656677 68.3741 0.656677 64.0006V11.3214C0.656677 11.3214 0.656677 0.656786 11.6627 0.656786H66.4828C67.9339 0.652421 69.3701 0.948673 70.701 1.52687C72.0319 2.10507 73.2286 2.95268 74.2157 4.01628C75.2028 5.07989 75.9589 6.33643 76.4364 7.70671C76.9138 9.077 77.1022 10.5313 76.9897 11.978V83.7274C76.9897 83.7274 76.8321 92.0936 66.8243 93.7485H42.1854L33.99 99.3172C33.99 99.3172 32.1776 99.1595 32.1776 97.6886V50.5648C32.1776 50.5648 36.4723 38.9941 51.8781 36.9321C61.7284 35.6187 64.1975 46.1257 64.3551 47.439C64.5127 48.7524 68.1376 53.6907 43.6695 69.7663V90.1236Z" stroke="white" stroke-miterlimit="3.86"/>
</g>
<defs>
<clipPath id="clip0_128_277">
<rect width="77.6596" height="100" fill="white"/>
</clipPath>
</defs>
</svg>
