<svg width="39" height="64" viewBox="0 0 39 64" fill="none" xmlns="http://www.w3.org/2000/svg">
<path d="M26.1355 46.2038L39 57.7732L32.1981 64L19.6294 52.4306L26.1355 46.2038ZM38.7782 23.3967V31.7237C38.7782 35.5801 38.3223 38.9822 37.4104 41.9298C36.4986 44.8528 35.1801 47.2969 33.455 49.2619C31.7299 51.2025 29.6844 52.664 27.3185 53.6465C24.9526 54.6291 22.328 55.1203 19.4445 55.1203C16.5611 55.1203 13.9242 54.6291 11.5336 53.6465C9.16777 52.664 7.12227 51.2025 5.39716 49.2619C3.69668 47.2969 2.36588 44.8528 1.40474 41.9298C0.468246 38.9822 0 35.5801 0 31.7237V23.3967C0 19.5402 0.468246 16.1505 1.40474 13.2274C2.34123 10.3044 3.65972 7.87258 5.36019 5.93207C7.08531 3.96699 9.13081 2.49319 11.4967 1.51065C13.8626 0.50355 16.4872 0 19.3706 0C22.2787 0 24.9156 0.50355 27.2815 1.51065C29.6474 2.49319 31.6929 3.96699 33.418 5.93207C35.1678 7.87258 36.4986 10.3044 37.4104 13.2274C38.3223 16.1505 38.7782 19.5402 38.7782 23.3967ZM27.9839 31.7237V23.323C27.9839 20.7929 27.7991 18.6191 27.4294 16.8014C27.0597 14.9837 26.5052 13.4976 25.7659 12.3431C25.0512 11.1886 24.1517 10.3412 23.0673 9.80081C22.0076 9.26041 20.7754 8.99021 19.3706 8.99021C17.9905 8.99021 16.7583 9.26041 15.6739 9.80081C14.6142 10.3412 13.727 11.1886 13.0123 12.3431C12.2976 13.4976 11.7431 14.9837 11.3488 16.8014C10.9791 18.6191 10.7943 20.7929 10.7943 23.323V31.7237C10.7943 34.2783 10.9791 36.4644 11.3488 38.2821C11.7185 40.0998 12.2607 41.5982 12.9754 42.7772C13.7147 43.9317 14.6142 44.7914 15.6739 45.3564C16.7583 45.8968 18.0152 46.167 19.4445 46.167C20.8246 46.167 22.0445 45.8968 23.1043 45.3564C24.1886 44.7914 25.0882 43.9317 25.8028 42.7772C26.5422 41.6227 27.0844 40.1366 27.4294 38.3189C27.7991 36.4767 27.9839 34.2783 27.9839 31.7237Z" fill="#D6D6D6"/>
</svg>
