<svg xmlns="http://www.w3.org/2000/svg" viewBox="0 0 59.12 76.14"><defs><style>.cls-1{fill:#e60012;}</style></defs><g id="圖層_2" data-name="圖層 2"><g id="圖層_1-2" data-name="圖層 1"><path class="cls-1" d="M8.87,0C.1,0,0,8.54,0,8.62V46a1.88,1.88,0,1,0,3.75,0V8.75A5.24,5.24,0,0,1,7.87,3.62H50.73c4.67.23,4.53,4.91,4.52,5.13V63.69c-.44,3.69-4.53,4.41-4.63,4.43H33.75V33.34l5.45,11a4.2,4.2,0,0,0,7.54-3.71l-13-26.37-1.6-3.24a3.43,3.43,0,0,0-6.16,0l-1.6,3.24-9.19,18.6-3.91,7.92a4.19,4.19,0,1,0,7.52,3.72L24,34V74.38a1.86,1.86,0,0,0,1.83,1.74l.18,0,6.27-4.26H51c7.94-1.3,8.16-8,8.16-8.12V9.12c0-9-8.41-9.12-8.5-9.12Z"/></g></g></svg>